<svg width="15" height="11" viewBox="0 0 15 11" fill="none" xmlns="http://www.w3.org/2000/svg">
<mask id="path-1-inside-1_32_3715" fill="white">
<path fill-rule="evenodd" clip-rule="evenodd" d="M7.23962 0L14.4792 10.6689H0L7.23962 0Z"/>
</mask>
<path fill-rule="evenodd" clip-rule="evenodd" d="M7.23962 0L14.4792 10.6689H0L7.23962 0Z" fill="white"/>
<path d="M7.23962 0L8.0671 -0.561501L7.23962 -1.78094L6.41214 -0.561501L7.23962 0ZM14.4792 10.6689V11.6689H16.3663L15.3067 10.1074L14.4792 10.6689ZM0 10.6689L-0.827476 10.1074L-1.88707 11.6689H0V10.6689ZM6.41214 0.561501L13.6518 11.2304L15.3067 10.1074L8.0671 -0.561501L6.41214 0.561501ZM14.4792 9.66891H0V11.6689H14.4792V9.66891ZM0.827476 11.2304L8.0671 0.561501L6.41214 -0.561501L-0.827476 10.1074L0.827476 11.2304Z" fill="#E0E0E0" mask="url(#path-1-inside-1_32_3715)"/>
</svg>
